<svg xmlns="http://www.w3.org/2000/svg" version="1.1" xmlns:xlink="http://www.w3.org/1999/xlink" width="378.1462" height="463.8719"><svg id="SvgjsSvg1002" xmlns="http://www.w3.org/2000/svg" version="1.1" viewBox="0 0 378.1462 463.8719">
  <!-- Generator: Adobe Illustrator 29.6.0, SVG Export Plug-In . SVG Version: 2.1.1 Build 207)  -->
  <defs>
    <style>
      .st0 {
        fill: #ffb703;
      }

      .st1 {
        fill: #1f224e;
      }

      .st2 {
        fill: #219ebc;
      }
    </style>
  </defs>
  <path class="st2" d="M262.178,109.9648c-6.038-.9461-12.2111-1.3968-18.5643-1.3968h-101.0226c-13.878,0-25.2781,10.5439-26.6298,24.0165-.0902.9012-.1801,1.8476-.1801,2.7485v220.8795h-56.8645c-7.3897,0-14.1035-2.9738-18.9248-7.8402-4.8665-4.8665-7.8853-11.5351-7.8853-18.9248V56.3899c0-.9012.0451-1.8025.135-2.7037,1.3968-13.5177,12.7969-24.0614,26.6751-24.0614h101.0223c52.4488,0,95.7504,31.271,102.239,80.3401Z"></path>
  <path class="st1" d="M274.7042,260.5523c0,57.8556-47.1316,95.6602-105.438,95.6602h-53.4851v-220.8795c0-.901.0899-1.8473.1801-2.7485,1.3517-13.4726,12.7518-24.0165,26.6298-24.0165h101.0226c6.3532,0,12.5263.4508,18.5643,1.3968.5858,4.1907.8561,8.5162.8561,12.977,0,27.0805-10.7241,48.5287-28.4322,63.9388,24.2418,15.4104,40.1024,40.5531,40.1024,73.6717Z"></path>
  <path class="st0" d="M358.3789,339.4956c0,57.8559-47.1316,95.6605-105.438,95.6605h-110.3498c-7.3895,0-14.1032-2.9741-18.9697-7.8402-4.8213-4.8665-7.8402-11.5354-7.8402-18.97v-52.1333h53.4851c58.3064,0,105.438-37.8046,105.438-95.6602,0-33.1186-15.8606-58.2613-40.1024-73.6717,17.7082-15.4101,28.4322-36.8583,28.4322-63.9388,0-4.4608-.2703-8.7863-.8561-12.977,48.0779,7.0743,84.5308,41.7247,84.5308,91.9205,0,27.0805-10.7241,48.5287-28.4322,63.9388,24.2418,15.365,40.1024,40.5531,40.1024,73.6714Z"></path>
</svg><style>@media (prefers-color-scheme: light) { :root { filter: none; } }
@media (prefers-color-scheme: dark) { :root { filter: none; } }
</style></svg>