<svg width="720" height="520" viewBox="0 0 720 520" fill="none" xmlns="http://www.w3.org/2000/svg">
  <defs>
    <linearGradient id="g1" x1="0" y1="0" x2="1" y2="1">
      <stop offset="0%" stop-color="#06b6d4"/>
      <stop offset="100%" stop-color="#7c3aed"/>
    </linearGradient>
    <linearGradient id="g2" x1="0" y1="0" x2="0" y2="1">
      <stop offset="0%" stop-color="#7c3aed" stop-opacity="0.85"/>
      <stop offset="100%" stop-color="#06b6d4" stop-opacity="0.85"/>
    </linearGradient>
    <filter id="blur" x="-20%" y="-20%" width="140%" height="140%">
      <feGaussianBlur stdDeviation="30"/>
    </filter>
  </defs>
  <rect x="0" y="0" width="720" height="520" rx="28" fill="#0b0b0b" opacity="0.02"/>
  <g filter="url(#blur)">
    <circle cx="120" cy="80" r="120" fill="url(#g1)" opacity="0.35"/>
    <circle cx="640" cy="420" r="140" fill="url(#g1)" opacity="0.25"/>
  </g>
  <g transform="translate(80,80)">
    <rect x="0" y="0" width="560" height="360" rx="18" fill="#0f172a" opacity="0.06"/>
    <rect x="0.5" y="0.5" width="559" height="359" rx="18" stroke="url(#g1)" opacity="0.6"/>
    <rect x="24" y="28" width="200" height="10" rx="5" fill="#6b7280" opacity="0.5"/>
    <g transform="translate(24,70)">
      <rect x="0" y="0" width="160" height="100" rx="10" fill="white" opacity="0.9"/>
      <rect x="12" y="76" width="72" height="10" rx="5" fill="#e5e7eb"/>
      <g transform="translate(20,14)">
        <rect x="0" y="40" width="14" height="40" rx="3" fill="url(#g2)"/>
        <rect x="22" y="20" width="14" height="60" rx="3" fill="url(#g2)"/>
        <rect x="44" y="8" width="14" height="72" rx="3" fill="url(#g2)"/>
        <rect x="66" y="28" width="14" height="52" rx="3" fill="url(#g2)"/>
      </g>
    </g>
    <g transform="translate(208,70)">
      <rect x="0" y="0" width="328" height="220" rx="12" fill="white" opacity="0.9"/>
      <rect x="16" y="16" width="140" height="12" rx="6" fill="#e5e7eb"/>
      <rect x="16" y="40" width="96" height="10" rx="5" fill="#e5e7eb"/>
      <rect x="16" y="64" width="280" height="10" rx="5" fill="#e5e7eb"/>
      <rect x="16" y="86" width="220" height="10" rx="5" fill="#e5e7eb"/>
      <rect x="16" y="120" width="296" height="80" rx="8" fill="#f3f4f6"/>
      <rect x="220" y="210" width="92" height="10" rx="5" fill="#e5e7eb"/>
    </g>
    <g transform="translate(24,190)">
      <rect x="0" y="0" width="160" height="140" rx="10" fill="white" opacity="0.9"/>
      <rect x="12" y="16" width="72" height="10" rx="5" fill="#e5e7eb"/>
      <rect x="12" y="36" width="120" height="10" rx="5" fill="#e5e7eb"/>
      <rect x="12" y="56" width="96" height="10" rx="5" fill="#e5e7eb"/>
      <rect x="12" y="76" width="56" height="10" rx="5" fill="#e5e7eb"/>
      <rect x="12" y="110" width="84" height="10" rx="5" fill="#e5e7eb"/>
    </g>
  </g>
</svg>


